<svg width="116" height="26" viewBox="0 0 116 26" fill="none" xmlns="http://www.w3.org/2000/svg">
<path d="M73.1192 7.327C73.1189 8.23455 72.8463 9.12161 72.3359 9.87607C71.8255 10.6305 71.1002 11.2185 70.2516 11.5656C69.4032 11.9127 68.4696 12.0034 67.569 11.8261C66.6684 11.6489 65.8412 11.2117 65.1918 10.5699C64.5426 9.92808 64.1005 9.1104 63.9216 8.22029C63.7425 7.33017 63.8344 6.40756 64.1859 5.56912C64.5375 4.73069 65.1326 4.01408 65.8962 3.50991C66.6597 3.00573 67.5575 2.73663 68.4757 2.73663C69.0857 2.73645 69.6897 2.85506 70.2533 3.08569C70.8168 3.31634 71.3289 3.65448 71.7602 4.08078C72.1912 4.5071 72.5333 5.01323 72.7664 5.57022C72.9997 6.12723 73.1196 6.72421 73.1192 7.327Z" fill="#219EBC"/>
<path d="M73.0347 7.25065C73.0347 9.69924 70.9943 11.6797 68.4759 11.6797C65.9574 11.6797 63.9185 9.69636 63.9185 7.25065C63.9185 4.80496 65.9589 2.82306 68.4759 2.82306C70.9928 2.82306 73.0347 4.80496 73.0347 7.25065Z" fill="#7FFF44"/>
<path d="M72.6849 7.30111C72.6849 8.12383 72.4381 8.92807 71.9755 9.61213C71.513 10.2962 70.8557 10.8294 70.0866 11.1442C69.3175 11.459 68.4711 11.5414 67.6547 11.3809C66.8382 11.2204 66.0882 10.8242 65.4995 10.2425C64.9108 9.66073 64.5101 8.91954 64.3476 8.11263C64.1852 7.30573 64.2685 6.46935 64.587 5.70926C64.9056 4.94919 65.4451 4.29952 66.1374 3.84245C66.8295 3.38537 67.6434 3.14142 68.4757 3.14142C69.5921 3.14142 70.6627 3.57966 71.4521 4.35977C72.2414 5.13986 72.6849 6.1979 72.6849 7.30111Z" fill="#219EBC"/>
<path d="M67.8476 4.81074C67.8039 4.56301 67.8024 4.30806 67.7486 4.06178C67.6422 3.56774 67.1816 3.72185 66.823 3.86156C66.396 4.02864 65.211 4.71569 65.5463 5.31343C65.7183 5.61879 66.0987 5.79739 66.3916 5.97167C66.7632 6.19491 67.151 6.39513 67.5051 6.64719C67.6058 6.72064 67.6931 6.81283 67.7967 6.88196C68.4583 7.31406 68.0283 5.80315 67.9876 5.58565C67.9423 5.32928 67.8927 5.06857 67.8476 4.81074Z" fill="#D2FFAE"/>
<path d="M67.7587 7.10518C67.7806 7.03893 67.7382 6.96116 67.5941 6.87042C67.2646 6.66156 66.9294 6.45991 66.5956 6.25683C66.2911 6.06959 65.9705 5.9025 65.6615 5.71959C65.5157 5.63605 65.2635 5.43152 65.0872 5.52946C64.7592 5.71383 64.7155 6.46567 64.6878 6.78832C64.6602 7.11096 64.5772 7.97805 65.0887 7.9521H65.1018C65.2695 7.89737 65.4356 7.83401 65.6032 7.77783C65.9573 7.65828 66.3188 7.56035 66.6816 7.46815C66.8681 7.42495 67.6873 7.32989 67.7587 7.10518Z" fill="#D2FFAE"/>
<path d="M68.0167 7.40337C67.9771 7.38232 67.9316 7.37424 67.887 7.38033C67.0469 7.56678 66.2171 7.79562 65.4007 8.06593C65.2636 8.1149 65.1281 8.16243 64.9911 8.20133C64.962 8.25317 64.9226 8.29205 64.8934 8.34535C64.869 8.4102 64.8582 8.47939 64.8619 8.54854C64.8656 8.61769 64.8838 8.68533 64.9154 8.74722C64.9707 8.89825 65.0419 9.04308 65.1281 9.17932C65.2417 9.3579 65.354 9.54372 65.4808 9.71511C65.6484 9.94126 65.9296 10.3157 66.2517 10.2913C66.6321 10.2668 66.8158 9.68776 66.9804 9.42705C67.218 9.05832 67.4352 8.67664 67.6829 8.31511C67.7836 8.17107 68.3591 7.52292 68.0167 7.40337Z" fill="#D2FFAE"/>
<path d="M69.0909 10.7608C69.089 10.7539 69.0887 10.7467 69.09 10.7398C69.0912 10.7328 69.094 10.7262 69.0983 10.7204C69.0903 10.7046 69.0835 10.6882 69.0777 10.6714C69.0752 10.6645 69.0744 10.6569 69.0757 10.6496C69.077 10.6422 69.0801 10.6354 69.0851 10.6297C68.8607 9.67617 68.6376 8.72123 68.4308 7.7634C68.4241 7.76079 68.4182 7.7569 68.4132 7.75195C68.4082 7.74701 68.4041 7.7411 68.4015 7.7346C68.3608 7.63809 68.2791 7.66114 68.215 7.71443C67.8347 8.31217 67.4717 8.91856 67.0869 9.51485C66.9587 9.71362 66.8305 9.91383 66.705 10.1155C66.7056 10.1249 66.7024 10.1342 66.6963 10.1414C66.6837 10.1606 66.6706 10.1779 66.6569 10.1933C66.6103 10.3791 66.5579 10.5793 66.7722 10.706C66.8782 10.7661 66.9905 10.8144 67.1074 10.85C67.3024 10.9214 67.5015 10.9815 67.7035 11.0301C68.129 11.1208 68.6128 11.1741 69.0254 11.0085C69.0568 10.9763 69.0796 10.9365 69.0911 10.8931C69.1025 10.8497 69.1025 10.8041 69.0909 10.7608Z" fill="#D2FFAE"/>
<path d="M71.9065 6.3548C71.9733 6.3127 72.0264 6.25263 72.0597 6.1817C72.093 6.11076 72.105 6.0319 72.0945 5.95438C71.9039 5.46576 71.6142 5.02072 71.2434 4.64656C71.1276 4.53567 70.9887 4.45105 70.8364 4.39857C70.6841 4.34609 70.5221 4.32699 70.3617 4.34265L70.3426 4.35417C69.8618 5.18525 69.3356 5.98895 68.8109 6.79266C68.6652 7.02168 68.9567 7.00007 69.0894 6.97127C69.9127 6.79411 70.7376 6.62558 71.567 6.4513L71.8891 6.38217C71.8921 6.37156 71.8982 6.36203 71.9065 6.3548Z" fill="#D2FFAE"/>
<path d="M70.1197 4.33399C70.1809 4.10785 70.1313 3.89325 69.8166 3.73481C69.3978 3.57656 68.9532 3.49506 68.5049 3.49426C68.432 3.49426 68.3591 3.49426 68.2848 3.5029C67.9715 3.52307 67.8927 3.89613 67.916 4.13234C67.9584 4.56444 68.0618 5.0095 68.1303 5.44593C68.1989 5.88236 68.2892 6.28278 68.3752 6.70048C68.4613 7.11816 68.862 6.45129 68.929 6.34182C69.2118 5.87803 69.5119 5.42289 69.7948 4.96198C69.931 4.76792 70.0403 4.55673 70.1197 4.33399Z" fill="#D2FFAE"/>
<path d="M72.0656 8.77597C72.1562 8.56246 72.2271 8.34115 72.2768 8.11485C72.3701 7.57327 72.3438 6.94961 72.1849 6.62985C72.104 6.55729 72.0021 6.51148 71.8935 6.49878H71.8717L71.6019 6.55496C70.7772 6.72923 69.9507 6.89776 69.1243 7.07492L69.069 7.08787C69.0625 7.09246 69.0549 7.09543 69.0472 7.09653L68.9904 7.10372C68.9086 7.11381 68.7323 7.17862 68.7119 7.27224C68.6842 7.40619 68.8999 7.49117 68.9916 7.54159C69.7117 7.94488 70.4171 8.35682 71.1094 8.80621C71.2552 8.90128 71.4008 8.99345 71.5538 9.08564C71.7623 9.15044 71.9372 9.01794 72.0656 8.77597Z" fill="#D2FFAE"/>
<path d="M69.4611 10.9106C69.7476 10.9109 70.0279 10.8278 70.2669 10.6715L70.3515 10.6168C70.3582 10.6115 70.3663 10.6084 70.3748 10.6081C70.4915 10.5347 70.6022 10.4641 70.7058 10.3878C71.0214 10.1477 71.3098 9.87433 71.5655 9.57252C71.5587 9.44279 71.4998 9.32109 71.4023 9.23404C71.3975 9.22899 71.3935 9.22313 71.3907 9.21676C71.2114 9.10585 71.0321 8.9935 70.8573 8.87683C70.2 8.44473 69.5092 8.06736 68.8169 7.67703L68.7177 7.61797C68.6113 7.58774 68.5721 7.74328 68.588 7.8369C68.5895 7.84404 68.5895 7.85138 68.588 7.85852C68.7965 8.82353 69.0254 9.78424 69.2483 10.7392C69.269 10.7792 69.2977 10.8145 69.3328 10.843C69.368 10.8715 69.4087 10.8926 69.4524 10.9048L69.4611 10.9106Z" fill="#D2FFAE"/>
<path d="M69.6535 23.5509V25H68.196V23.4775C68.2036 22.4728 67.9912 21.4784 67.5737 20.5623C67.1692 19.6728 66.597 18.8677 65.8875 18.19C65.1708 17.5091 64.3301 16.9686 63.4099 16.597C62.4635 16.2108 61.4488 16.0149 60.4249 16.0209H57.0524V25.0014H55.4027V7.04466L57.0524 5.37817V14.3529H59.3597C60.3839 14.359 61.399 14.1631 62.3459 13.7768C63.2661 13.405 64.1068 12.8645 64.8235 12.1838C65.5321 11.5052 66.103 10.699 66.5054 9.80866C66.923 8.89258 67.1352 7.89814 67.1278 6.89341H68.594V6.96687C68.5755 8.14886 68.3281 9.31643 67.8652 10.4064C67.4027 11.4901 66.7304 12.4741 65.886 13.3029C65.2239 13.9746 64.4574 14.5372 63.6152 14.9694C64.8731 15.4113 66.0133 16.1293 66.95 17.0694C67.7925 17.8989 68.4632 18.8828 68.9248 19.9659C69.3877 21.056 69.635 22.2235 69.6535 23.4054V23.5494V23.5509Z" fill="#219EBC"/>
<path d="M17.5519 3.51876L16.5317 7.00294H16.297C14.3645 2.51339 11.8898 0.80948 9.21099 0.80948C5.85889 0.80948 3.92197 2.68193 3.71792 4.69839C3.07372 11.3931 17.6233 9.18075 17.6233 17.5578C17.6233 21.546 13.9957 24.3605 9.18183 24.3605C5.1462 24.3605 2.63795 23.021 0 21.0477L1.0202 17.2279H1.24319C2.97171 20.6459 6.1256 23.6951 10.5708 23.6951C13.4536 23.6951 15.8613 21.8515 16.1323 19.7413C17.0141 12.603 2.43247 14.8816 2.43247 6.47146C2.43247 3.75785 4.6361 0.373056 10.0956 0.373056C12.703 0.368735 15.5508 1.9776 17.5519 3.51876Z" fill="#219EBC"/>
<path d="M36.7417 23.9255V24.1603H32.572V23.9255C33.0806 23.623 33.2497 23.0542 33.1549 21.9478C33.0193 20.8417 32.5457 15.1783 32.3753 13.4369C32.0969 10.9235 30.842 8.076 27.9272 8.64205C24.1291 9.38237 23.4528 16.3853 23.4528 19.1998V21.9478C23.4528 23.1203 23.6903 23.623 24.1991 23.9255V24.1603H19.9929V23.9255C20.535 23.623 20.7725 23.1203 20.7725 21.9478V2.57966C20.7725 1.40721 20.6706 1.07161 19.9929 0.97223V0.704326L23.1802 0H23.4528V16.3522C23.8594 12.5987 25.0459 8.04143 29.4546 8.04143C32.2003 8.04143 34.573 9.91386 34.9812 13.9468C35.3543 17.1977 35.6588 20.7165 35.7945 21.9551C35.9284 23.1549 36.2331 23.6216 36.7417 23.9255Z" fill="#219EBC"/>
<path d="M53.8985 24.1603H50.4734V19.4692C49.5991 22.4176 47.7277 24.3663 44.4733 24.3663C41.6924 24.3663 38.9802 23.06 38.5386 20.6473C37.9628 17.2294 40.031 15.2187 42.6411 14.1456C41.7594 12.2026 42.8117 8.04724 47.3546 8.04724C50.1689 8.04724 53.1522 9.52215 53.1522 13.6444V21.9538C53.1522 23.1261 53.3897 23.6288 53.8985 23.9314V24.1603ZM50.4734 18.8685V13.7049C49.8163 13.4984 49.1299 13.3968 48.4404 13.4039C44.7443 13.4039 39.7263 15.2129 41.1838 21.1096C41.621 22.9201 43.5915 24.025 45.2864 23.9256C48.2363 23.7571 49.7958 21.2783 50.4734 18.8685ZM42.9823 14.0059C44.8113 13.3362 46.846 13.1072 48.4404 13.1072C49.1294 13.1098 49.8143 13.2117 50.4734 13.4096V13.1691C50.4734 10.6226 49.4533 8.37708 47.0499 8.37708C44.0024 8.37708 41.962 11.2923 42.9823 14.0059Z" fill="#219EBC"/>
<path d="M87.2957 18.831C87.0931 21.2105 84.9638 24.3605 80.1425 24.3605C75.4627 24.3605 70.9535 22.0819 70.815 16.5538C70.646 10.7565 75.9685 8.24306 79.7053 8.04142C82.5881 7.90747 86.5553 9.28156 87.0291 13.3361H83.8721C85.8047 13.8388 87.5682 15.7818 87.2957 18.831ZM82.4788 13.3361H73.7007C73.2663 15.1094 73.3481 16.9678 73.9368 18.6971C75.1917 22.2158 77.735 23.7569 81.1934 23.623C84.1083 23.4892 86.6515 21.5129 86.9911 18.8988C87.3978 15.4117 85.0585 13.3361 82.4788 13.3361ZM73.7649 13.0682H84.5805C84.1433 10.153 81.4951 7.80808 78.1677 8.44471C75.8694 8.87969 74.3784 10.7896 73.7679 13.0682H73.7649Z" fill="#219EBC"/>
<path d="M106.321 12.3745V12.5H104.039V12.3745C104.317 12.2127 104.41 11.9084 104.358 11.3168C104.284 10.7252 104.024 7.69629 103.932 6.76497C103.784 5.42075 103.243 3.89783 101.801 4.20057C100.097 4.55875 99.8748 7.33654 99.8564 9.21845V11.3153C99.8564 11.9423 99.9854 12.2112 100.263 12.3729V12.4985H97.9877V12.3729C98.2656 12.2112 98.3952 11.9423 98.3952 11.3153V6.76497C98.3952 5.40303 97.7464 3.93326 96.3019 4.20211C94.2268 4.57879 94.1345 8.3241 94.1345 9.84703V11.3168C94.1345 11.9439 94.2825 12.2127 94.5604 12.3745V12.5H92.2607V12.3745C92.5386 12.2127 92.6868 11.9439 92.6868 11.3168V5.25975C92.6868 4.63194 92.6319 4.45323 92.2607 4.3993V4.27759L94.0063 3.87933H94.136V7.85807C94.3399 5.95845 94.8956 3.87933 97.1189 3.87933C98.5449 3.87933 99.7673 5.06256 99.8413 7.03767L99.8605 7.23486C100.083 5.49625 100.768 3.88319 102.639 3.88319C104.102 3.88319 105.14 4.94084 105.362 7.04151C105.566 8.78013 105.732 10.662 105.806 11.3245C105.876 11.9623 106.043 12.2119 106.321 12.3745Z" fill="#219EBC"/>
<path d="M115.973 9.58062C115.865 10.8369 114.728 12.5 112.166 12.5C109.676 12.5 107.28 11.297 107.202 8.37832C107.111 5.31747 109.945 3.99046 111.933 3.88399C113.467 3.81327 115.579 4.53876 115.831 6.67946H114.151C115.179 6.94486 116.117 7.97071 115.973 9.58062ZM113.414 6.67946H108.738C108.507 7.61575 108.551 8.59698 108.864 9.5099C109.532 11.3677 110.885 12.1814 112.725 12.1107C114.276 12.04 115.631 10.9966 115.81 9.61637C116.028 7.77528 114.783 6.67946 113.411 6.67946H113.414ZM108.777 6.53801H114.531C114.299 4.99883 112.89 3.7608 111.119 4.09693C109.893 4.32658 109.102 5.33495 108.774 6.53801H108.777Z" fill="#219EBC"/>
</svg>
